<svg
  viewBox="0 0 360 214"
  xmlns="http://www.w3.org/2000/svg"
  fill="none"
>
  <g id="logo">
    <g id="logo_2">
      <g id="Frame" clip-path="url(#clip0_2057_72231)">
        <g id="Group">
          <path
            id="Vector"
            d="M222.887 80.033H228.221L235.079 97.4281H250.319L241.937 78.5204C249.557 75.4952 252.986 69.4447 253.748 63.0161C254.891 54.3186 249.938 45.6211 236.603 45.6211H215.267L207.646 97.8062H220.982L222.887 80.033ZM226.316 57.3438H234.698C238.508 57.3438 240.032 59.6128 239.27 62.638C238.889 65.6632 236.603 68.3103 231.269 68.3103H224.792L226.316 57.3438Z"
            fill="#FF004B"
          />
          <path
            id="Vector_2"
            d="M296.42 84.9502H272.036L273.179 77.3872H296.039L297.944 64.9081H275.084L276.227 57.345H300.611L302.516 45.2441H264.797L256.796 97.4293H294.896L296.42 84.9502Z"
            fill="#FF004B"
          />
          <path
            id="Vector_3"
            d="M355.094 71.7149C357.38 55.4543 348.617 45.2441 331.472 45.2441H311.66L304.04 97.4293H326.138C342.521 97.4293 352.808 87.5973 355.094 71.7149ZM322.709 57.7232H331.472C339.473 57.7232 342.14 63.7736 341.378 70.5804C340.235 77.7653 335.663 84.5721 326.138 84.5721H318.518L322.709 57.7232Z"
            fill="#FF004B"
          />
          <path
            id="Vector_4"
            d="M165.356 134.11C166.499 124.657 162.308 115.959 147.448 115.959H127.255L119.635 168.144H132.97L135.637 151.884H142.876C157.355 151.505 164.213 143.942 165.356 134.11ZM151.64 133.354C151.259 137.136 148.211 139.404 142.495 139.404H137.161L139.066 127.682H146.686C150.497 127.682 152.402 129.951 151.64 133.354Z"
            fill="#1D1E20"
          />
          <path
            id="Vector_5"
            d="M185.548 115.58L158.497 167.765H172.213L176.785 158.311H193.549L195.073 167.765H208.79L197.74 115.58H185.548ZM181.738 146.967L188.977 131.463L191.644 146.967H181.738Z"
            fill="#1D1E20"
          />
          <path
            id="Vector_6"
            d="M241.936 115.58H222.124L214.504 167.765H236.221C252.985 167.765 263.272 157.933 265.558 142.429C267.844 126.168 259.081 115.58 241.936 115.58ZM251.842 141.295C250.699 148.479 246.127 155.286 236.602 155.286H228.982L233.173 128.437H241.936C250.318 128.437 252.604 134.488 251.842 141.295Z"
            fill="#1D1E20"
          />
          <path
            id="Vector_7"
            d="M269.369 167.765H307.469L308.993 155.664H284.609L286.133 147.723H308.612L310.518 135.622H287.657L288.8 127.681H313.566L315.09 115.58H277.37L269.369 167.765Z"
            fill="#1D1E20"
          />
          <path
            id="Vector_8"
            d="M331.474 155.286L337.57 115.58H324.234L316.233 167.765H355.096L357.001 155.286H331.474Z"
            fill="#1D1E20"
          />
          <g id="Group 116045014">
            <path
              id="Vector_9"
              d="M46.8635 147.345C46.8635 123.9 59.4366 103.479 77.7248 92.1348C76.5818 92.1348 75.4388 92.1348 74.2958 92.1348C73.9148 92.1348 73.9148 92.1348 73.5338 92.1348C72.7718 92.1348 72.3908 92.1348 71.6287 92.1348C71.2477 92.1348 70.8667 92.1348 70.4857 92.1348H70.1047C42.2915 92.8911 17.1453 111.042 8.00121 137.135L6.09619 142.051C20.9553 182.891 60.1986 212.009 106.3 212.009C107.443 212.009 108.205 212.009 109.348 212.009C74.6768 210.875 46.8635 182.513 46.8635 147.345Z"
              fill="#DD004B"
            />
            <path
              id="Vector_10"
              d="M70.1046 88.3531C70.8666 88.3531 71.2476 88.3531 72.0096 88.3531C72.7716 88.3531 73.1526 88.3531 73.9146 88.3531C70.1046 88.3531 77.7246 88.3531 73.9146 88.3531C92.9648 88.3531 123.462 98.9807 139.825 96.1512C156.187 93.3217 174.533 83.3329 176.021 55.2312C177.508 27.1294 150.733 13.3251 150.733 13.3251C150.733 13.3251 135.362 3.95786 105.117 3.46484C52.5382 3.46484 10.2871 38.8151 1.52401 88.3531C0.381003 94.4036 0 100.454 0 106.504C0 116.715 1.52401 126.547 4.19103 135.622C13.7161 108.773 39.6243 89.1094 70.1046 88.3531Z"
              fill="#FF004B"
            />
          </g>
        </g>
      </g>
    </g>
  </g>
  <defs>
    <clipPath id="clip0_2057_72231">
      <rect
        width="357"
        height="211.009"
        fill="white"
        transform="translate(0 1)"
      />
    </clipPath>
  </defs>
</svg>